<svg width="32" height="32" viewBox="0 0 32 32" fill="none" xmlns="http://www.w3.org/2000/svg">
  <!-- 深色背景 -->
  <rect width="32" height="32" rx="8" fill="#0f0f0f"/>
  
  <!-- 渐变定义 -->
  <defs>
    <linearGradient id="waveGradient" x1="0%" y1="0%" x2="100%" y2="100%">
      <stop offset="0%" style="stop-color:#00ff88;stop-opacity:1" />
      <stop offset="100%" style="stop-color:#00cc66;stop-opacity:1" />
    </linearGradient>
    <radialGradient id="glowGradient">
      <stop offset="0%" style="stop-color:#00ff88;stop-opacity:0.3" />
      <stop offset="100%" style="stop-color:#00ff88;stop-opacity:0" />
    </radialGradient>
  </defs>
  
  <!-- 中心发光效果 -->
  <circle cx="16" cy="16" r="12" fill="url(#glowGradient)"/>
  
  <!-- W字母主体 - 终端字体风格 (两底一顶，顶部与两边平齐) -->
  <path d="M6 10 L10 22 L16 10 L22 22 L26 10" 
        stroke="url(#waveGradient)" 
        stroke-width="2" 
        fill="none" 
        stroke-linecap="square" 
        stroke-linejoin="miter"/>
  
  <!-- 增强终端字体效果的像素化细节 -->
  <rect x="5" y="10" width="2" height="1" fill="#00ff88" opacity="0.8"/>
  <rect x="9" y="22" width="2" height="1" fill="#00ff88" opacity="0.8"/>
  <rect x="15" y="10" width="2" height="1" fill="#00ff88" opacity="0.8"/>
  <rect x="21" y="22" width="2" height="1" fill="#00ff88" opacity="0.8"/>
  <rect x="25" y="10" width="2" height="1" fill="#00ff88" opacity="0.8"/>
  
  <!-- AI数据流效果 - 点阵 -->
  <circle cx="8" cy="12" r="1" fill="#00ff88" opacity="0.6">
    <animate attributeName="opacity" values="0.6;1;0.6" dur="2s" repeatCount="indefinite"/>
  </circle>
  <circle cx="24" cy="12" r="1" fill="#00ff88" opacity="0.8">
    <animate attributeName="opacity" values="0.8;0.4;0.8" dur="2s" repeatCount="indefinite" begin="0.5s"/>
  </circle>
  <circle cx="16" cy="20" r="1" fill="#00ff88" opacity="0.7">
    <animate attributeName="opacity" values="0.7;1;0.7" dur="2s" repeatCount="indefinite" begin="1s"/>
  </circle>
  
  <!-- 底部交易活跃度指示条 -->
  <rect x="8" y="28" width="16" height="2" rx="1" fill="#00ff88" opacity="0.3"/>
  <rect x="8" y="28" width="8" height="2" rx="1" fill="#00ff88">
    <animate attributeName="width" values="8;16;8" dur="3s" repeatCount="indefinite"/>
  </rect>
</svg>